<svg xmlns="http://www.w3.org/2000/svg" version="1.1" xmlns:xlink="http://www.w3.org/1999/xlink" xmlns:svgjs="http://svgjs.dev/svgjs" width="1000" height="1125" viewBox="0 0 1000 1125"><g transform="matrix(1,0,0,1,1.7053025658242404e-13,0)"><svg viewBox="0 0 320 360" data-background-color="#ffffff" preserveAspectRatio="xMidYMid meet" height="1125" width="1000" xmlns="http://www.w3.org/2000/svg" xmlns:xlink="http://www.w3.org/1999/xlink"><g id="tight-bounds" transform="matrix(1,0,0,1,0,0)"><svg viewBox="0 0 320 360" height="360" width="320"><g><svg></svg></g><g><svg viewBox="0 0 320 360" height="360" width="320"><g><path xmlns="http://www.w3.org/2000/svg" d="M20.961 227.22l3.726 4.658-1.863-6.056c-0.466-2.795-3.726 0.466-1.863 1.398M25.153 224.425c1.397 2.329 2.795 4.658 2.795 6.987 0 3.261 2.795 4.658 5.123 5.589-3.261-3.726-5.124-13.974-7.918-12.576M204.017 26.929c7.918 0 15.371-0.932 23.756 0.931 20.495 5.124 37.729 15.371 49.374 29.811l32.606 52.169c1.397 13.042 4.192 27.482 3.726 43.319 3.261 0 2.795-4.658 6.521-5.59-3.726 9.316-5.59 20.961-6.521 34.469-2.329-7.453 0-18.632 0.466-24.687-3.261 5.124-5.124 1.397-5.124-0.932 0.466-3.726-1.397-3.261-2.795-4.658-5.124-4.658-8.384-9.782-12.11-17.7 2.329-6.055 2.795-14.905-4.658-19.563-2.329-1.397-5.124-3.726-6.521-7.453-1.863-5.124-5.124-11.179-4.193-19.097 0.466-2.329-6.987 5.124-11.179 1.863-18.166-12.576-36.332-27.016-58.224-39.127-11.645 0-20.029-4.192-24.221-9.316-3.726-4.658-0.932-10.713 4.658-11.179 3.261 0 6.987-0.932 9.782 0.932 0.466-1.863 2.329-4.192 4.657-4.192M157.904 16.215l0.932 0.466c4.658 0.932 6.987 7.453 12.11 5.124 0 3.261 0.466 6.521-0.466 8.85-1.397 3.726-5.59 3.726-8.85 3.726-31.208-1.863-49.374 11.179-68.471 22.358-5.124 3.261-10.713 5.59-14.906 9.782-20.029 18.632-41.921 35.866-47.045 70.335l-4.192 38.195c-0.466 4.192-5.124 8.384-4.192 13.508l3.26 22.824c-3.261-3.261-5.124 0.932-4.192 2.795 0.466 1.397 2.329 6.055 5.124 1.863 3.726 6.987 7.453 20.495 12.576 26.55 15.837 18.632 36.332 35.4 53.101 52.169 4.192-0.932 7.453-0.932 8.384-3.727 1.397 2.795-1.397 5.59-3.726 6.056 7.453 4.658 15.837 8.85 27.016 9.781 14.44 0.932 27.948 3.261 40.524 6.522 6.521-1.863 13.042-2.795 20.029-3.261 2.329 0 3.726-3.726 6.521-4.658l0.466-4.658c2.795 4.192 2.329-1.397 0.466-4.192 3.261 2.795 4.192 5.124 5.589 6.987 0-1.397 3.726-6.521 3.727-0.466l0.931-6.055c1.397-0.932 1.863 5.124 3.261 0.931 1.397-4.192 4.192-0.932 6.987-2.329-0.932 1.863-0.466 5.59 2.794 3.261l3.727-3.261c2.329 5.59 6.055 3.261 7.918 2.329 20.495-13.042 40.99-28.413 60.553-43.784l-0.466 6.055 2.329-7.453c2.329 2.329 4.192 0.466 5.124-0.931 2.795-4.658 6.521-9.316 12.577-13.508-7.453 20.029-16.303 35.866-27.482 48.908l-4.658 5.59c0 3.261-0.932 7.453-4.658 7.918-1.863 0.466-5.59-0.932-8.384 1.863-1.397 1.863 3.261 5.59-0.466 2.795-3.261-2.329-6.521 0-10.248 0.932-2.795 0.932 1.863 3.726 2.795 5.589 0.932 1.863 1.863 3.726 1.398 6.056l-5.124-5.59c-6.055 3.261-9.782 9.316-14.906 13.974-2.329 1.863-1.397 5.124-1.397 7.918-3.261 0-6.987-0.932-8.85 0.932-1.397 1.863-0.932 4.658-0.932 7.453-4.658-0.466-5.124-7.453-9.315-6.056-4.192 0.932-8.85 1.397-12.577 3.727 2.795 5.59-4.658 2.329-3.726 3.26-6.987-4.192-13.042-7.453-20.495-4.658-15.837-5.124-35.4-2.795-49.84-0.931 0-2.329 0.466-4.658-0.466-5.124-0.932 2.329-3.726 1.397-3.26 1.397-8.85-6.055-17.7-9.782-27.016-14.905-8.384 0.932-16.303-3.261-18.632-5.59-6.521-6.055-13.974-2.795-20.029-4.192-13.042-3.261-17.7-16.769-19.098-26.084-0.932-4.658-4.658-6.521-6.055-6.056-6.055-19.563-15.371-37.263-22.824-55.429-1.863-4.658-1.397-9.316-1.397-14.44 2.329 0.932 4.658 0.466 4.192-2.794-2.329-15.371-7.918-27.016-13.974-38.195 3.261-15.837 3.726-34.469 11.179-48.443 6.521-12.576 18.632-19.098 27.016-29.811 2.795-3.726 2.795-8.85 5.59-12.11 9.316-9.316 18.632-19.098 28.879-27.482 4.658-3.726 10.247 0 17.234-1.397 2.329-8.384 11.645-15.837 20.495-13.508 3.726 0.932 11.179-8.85 13.508-9.782 3.726-1.397 1.863 3.726 1.863 6.987 8.85-6.987 20.961-10.713 32.14-14.906" fill="#61777f" fill-rule="nonzero" stroke="none" stroke-width="1" stroke-linecap="butt" stroke-linejoin="miter" stroke-miterlimit="10" stroke-dasharray="" stroke-dashoffset="0" font-family="none" font-weight="none" font-size="none" text-anchor="none" style="mix-blend-mode: normal" data-fill-palette-color="tertiary"></path></g><g transform="matrix(1,0,0,1,64,92.05281529989645)"><svg viewBox="0 0 192 175.8943694002071" height="175.8943694002071" width="192"><g><svg viewBox="0 0 192 175.8943694002071" height="175.8943694002071" width="192"><g><svg viewBox="0 0 192 175.8943694002071" height="175.8943694002071" width="192"><g transform="matrix(1,0,0,1,0,104.52972126896394)"><svg viewBox="0 0 192 71.36464813124317" height="71.36464813124317" width="192"><g><svg viewBox="0 0 192 71.36464813124317" height="71.36464813124317" width="192"><g><svg viewBox="0 0 192 40.45789281808239" height="40.45789281808239" width="192"><g transform="matrix(1,0,0,1,0,0)"><svg width="192" viewBox="1.100000023841858 -41.33000183105469 200.88999938964844 42.33000183105469" height="40.45789281808239" data-palette-color="#61777f"><path d="M6.71-0.29L6.71-0.29Q5.59 0.49 4.16 0.49 2.73 0.49 2.04-0.15 1.34-0.78 1.34-1.37L1.34-1.37Q1.34-2.17 1.68-2.64L1.68-2.64Q2.22-2.22 3.05-2.22L3.05-2.22Q4.47-2.22 5.08-3.86L5.08-3.86 5.08-11.35Q5.08-12.43 4.64-12.92L4.64-12.92Q3.96-13.67 2.1-14.58L2.1-14.58Q3.81-15.36 4.27-15.82L4.27-15.82Q5.08-16.63 5.08-17.8L5.08-17.8 5.08-31.62Q5.08-34.4 2.81-34.4L2.81-34.4Q1.98-34.4 1.44-33.98L1.44-33.98Q1.1-34.45 1.1-34.95 1.1-35.45 1.35-35.91 1.61-36.38 2.15-36.77L2.15-36.77Q3.3-37.6 5.05-37.6 6.81-37.6 7.79-37.38L7.79-37.38Q9.13-39.06 10.82-39.06L10.82-39.06Q13.33-39.06 13.33-36.43L13.33-36.43 13.33-15.99 20.39-22.51Q22-24.17 22-24.9 22-25.63 21.07-25.63 20.14-25.63 19.34-25.17L19.34-25.17Q19.07-25.61 19.07-26.31 19.07-27 19.8-27.66 20.53-28.32 21.88-28.32 23.22-28.32 24.24-27.49L24.24-27.49Q25.2-28.32 26.32-28.32 27.44-28.32 28.27-27.66L28.27-27.66Q29.1-28.32 30.22-28.32 31.35-28.32 32.09-27.73 32.84-27.15 32.84-26.17L32.84-26.17Q32.84-25.27 32.59-24.93L32.59-24.93Q31.93-25.59 30.97-25.59 30-25.59 29.41-25.31 28.81-25.02 28.1-24.5 27.39-23.97 26.54-23.22L26.54-23.22 22.49-19.7 29.93-5.05Q30.62-3.59 31.14-2.91 31.67-2.22 32.48-2.22 33.3-2.22 33.84-2.64L33.84-2.64Q34.18-2.17 34.18-1.48 34.18-0.78 33.48-0.15 32.79 0.49 31.27 0.49 29.76 0.49 28.34-0.34L28.34-0.34Q27.2 0.49 25.82 0.49 24.44 0.49 23.41-0.24L23.41-0.24Q22.46 0.49 21.28 0.49 20.09 0.49 19.38-0.09 18.68-0.66 18.68-1.54 18.68-2.42 19.04-2.73L19.04-2.73Q20-2 20.95-2.49L20.95-2.49Q21.29-2.66 21.56-3.15L21.56-3.15 16.38-14.4 13.33-11.74 13.33-3.49Q13.79-2.29 14.87-2.29L14.87-2.29Q15.43-2.29 15.99-2.73L15.99-2.73Q16.36-2.42 16.36-1.53 16.36-0.63 15.65-0.07 14.94 0.49 13.75 0.49 12.55 0.49 11.6-0.24L11.6-0.24Q10.6 0.49 9.23 0.49 7.86 0.49 6.71-0.29ZM8.76-13.65L8.76-15.11 8.79-18.36 8.79-23.14Q8.79-27.69 8.62-28.44L8.62-28.44Q8.28-29.93 7.37-30.52L7.37-30.52 7.37-22.29Q7.37-17.24 7.26-16.66 7.15-16.09 7.08-15.82L7.08-15.82Q6.86-15.06 5.42-14.58L5.42-14.58Q6.88-14.06 7.08-13.35L7.08-13.35Q7.37-12.18 7.37-8.08L7.37-8.08 7.37-6.49Q8.67-7.32 8.74-10.89L8.74-10.89 8.74-12.35Q8.76-13.09 8.76-13.65L8.76-13.65ZM18.46-16.19L22.88-6.47Q23.19-6.88 23.19-7.59 23.19-8.3 23.08-8.86 22.97-9.42 22.8-9.99L22.8-9.99Q22.49-10.89 21.88-12.13L21.88-12.13 19.56-17.16 18.46-16.19ZM40.28-0.29L40.28-0.29Q39.16 0.49 37.72 0.49 36.28 0.49 35.63-0.18 34.98-0.85 34.98-1.46L34.98-1.46Q34.98-2.27 35.25-2.64L35.25-2.64Q35.79-2.22 36.62-2.22L36.62-2.22Q38.18-2.22 38.64-3.74L38.64-3.74 38.64-11.13Q38.64-12.26 38.21-12.79L38.21-12.79Q37.42-13.75 35.67-14.6L35.67-14.6Q38.64-15.97 38.64-18.8L38.64-18.8 38.64-21.36Q38.64-23.44 37.23-23.61L37.23-23.61Q36.81-23.66 36.18-23.66 35.54-23.66 35.01-23.24L35.01-23.24Q34.67-23.71 34.67-24.21 34.67-24.71 34.92-25.33 35.18-25.95 35.72-26.51L35.72-26.51Q36.98-27.83 38.68-27.83 40.38-27.83 41.5-27.29L41.5-27.29Q42.84-28.81 44.38-28.81L44.38-28.81Q46.77-28.81 46.77-26.17L46.77-26.17 46.77-22.83Q49.22-28.83 54.54-28.83L54.54-28.83Q56.93-28.83 58.42-27.37L58.42-27.37Q59.96-25.88 59.96-23.24L59.96-23.24 59.96-22.9Q59.96-22.73 59.91-22.2 59.86-21.68 59.95-21.14 60.03-20.61 60.23-20.26L60.23-20.26Q60.5-19.75 61.23-19.46L61.23-19.46Q61.06-18.8 60.43-18.27 59.81-17.75 59.06-17.75L59.06-17.75 58.59-17.75Q57.64-16.55 55.93-16.06L55.93-16.06Q55.44-15.92 54.87-15.92 54.29-15.92 53.87-16.17 53.44-16.43 53.39-16.72L53.39-16.72Q53.85-16.94 53.85-17.6L53.85-17.6 53.85-17.72Q53.66-17.68 53.51-17.68L53.51-17.68 53.27-17.68Q52.46-17.68 51.82-18.29 51.17-18.9 50.97-19.82L50.97-19.82Q52.29-19.78 53.27-20.8L53.27-20.8Q54.15-21.7 54.15-22.66L54.15-22.66Q54.15-24.9 52.19-24.9L52.19-24.9Q50.51-24.9 48.8-22.22L48.8-22.22Q47.19-19.75 46.77-17.11L46.77-17.11 46.77-3.91Q47.04-3.05 47.6-2.64 48.17-2.22 49.14-2.22 50.12-2.22 50.66-2.64L50.66-2.64Q50.93-2.27 50.93-1.56 50.93-0.85 50.28-0.18 49.63 0.49 48.11 0.49 46.58 0.49 45.19-0.34L45.19-0.34Q44.21 0.49 42.82 0.49 41.43 0.49 40.28-0.29ZM42.39-11.88Q42.4-12.7 42.42-13.26 42.43-13.82 42.43-14.16L42.43-14.16 42.43-14.82Q42.43-15.19 42.42-15.76 42.4-16.33 42.39-17.05 42.38-17.77 42.36-18.46L42.36-18.46Q42.21-21 41.81-21.72 41.4-22.44 40.99-22.71L40.99-22.71 40.99-21.12Q40.99-17.02 40.81-16.3 40.62-15.58 40.22-15.22 39.82-14.87 39.04-14.6L39.04-14.6Q40.5-14.09 40.7-13.35L40.7-13.35Q40.99-12.18 40.99-8.08L40.99-8.08 40.99-6.49Q42.11-7.23 42.26-9.47L42.26-9.47Q42.38-11.06 42.39-11.88ZM69.6-32.3L69.6-32.3Q68.35-32.3 67.19-32.96 66.04-33.62 65.42-34.72L65.42-34.72Q64.77-35.84 63.67-36.43L63.67-36.43Q63.33-36.6 62.89-36.79L62.89-36.79 63.72-37.3Q64.89-38.04 65.45-39.09 66.01-40.14 67.15-40.73 68.28-41.33 69.6-41.33L69.6-41.33Q72.33-41.33 73.55-39.04L73.55-39.04Q74.38-37.52 76.12-36.79L76.12-36.79Q75.75-36.57 75.4-36.4 75.04-36.23 74.73-36.01L74.73-36.01Q74.02-35.52 73.47-34.57 72.92-33.62 71.88-32.96 70.84-32.3 69.6-32.3ZM68.31-35.29Q68.16-35.55 68.07-35.9 67.99-36.25 67.99-37.16 67.99-38.06 68.92-39.45L68.92-39.45Q68.01-39.45 67.65-39.12 67.28-38.79 67.1-38.56 66.91-38.33 66.78-38.1 66.65-37.87 66.45-37.6L66.45-37.6Q65.99-36.94 65.69-36.79L65.69-36.79Q66.08-36.57 66.41-36.1 66.74-35.62 67.18-35.11L67.18-35.11Q67.84-34.3 68.92-34.3L68.92-34.3Q68.77-34.57 68.61-34.8 68.45-35.03 68.31-35.29ZM67.16-0.29L67.16-0.29Q66.04 0.49 64.61 0.49 63.18 0.49 62.48-0.15 61.79-0.78 61.79-1.37L61.79-1.37Q61.79-2.17 62.13-2.64L62.13-2.64Q62.67-2.22 63.72-2.22 64.77-2.22 65.52-3.59L65.52-3.59 65.52-11.38Q65.52-12.45 65.08-12.94L65.08-12.94Q64.37-13.67 62.54-14.58L62.54-14.58Q64.25-15.36 64.72-15.82L64.72-15.82Q65.52-16.63 65.52-17.8L65.52-17.8 65.52-21.36Q65.52-23.44 64.11-23.61L64.11-23.61Q63.69-23.66 63.06-23.66 62.42-23.66 61.88-23.24L61.88-23.24Q61.54-23.71 61.54-24.21 61.54-24.71 61.8-25.33 62.06-25.95 62.59-26.51L62.59-26.51Q63.86-27.83 65.52-27.83 67.18-27.83 68.53-27.25L68.53-27.25Q69.72-28.81 71.26-28.81L71.26-28.81Q73.77-28.81 73.77-26.17L73.77-26.17 73.77-17.8Q73.77-16.63 74.29-16.11L74.29-16.11Q75.04-15.36 76.75-14.58L76.75-14.58Q74.92-13.67 74.46-13.21L74.46-13.21Q73.77-12.45 73.77-11.38L73.77-11.38 73.77-3.52Q74.58-2.22 75.61-2.22 76.63-2.22 77.17-2.64L77.17-2.64Q77.51-2.17 77.51-1.48 77.51-0.78 76.81-0.15 76.12 0.49 74.73 0.49 73.33 0.49 72.14-0.29L72.14-0.29Q71.14 0.49 69.72 0.49 68.31 0.49 67.16-0.29ZM69.27-11.87Q69.28-12.7 69.29-13.26 69.31-13.82 69.31-14.16L69.31-14.16 69.31-14.82Q69.31-15.19 69.29-15.77 69.28-16.36 69.27-17.07 69.26-17.77 69.23-18.46L69.23-18.46Q69.14-20.14 68.99-20.78L68.99-20.78Q68.7-22.19 67.87-22.73L67.87-22.73 67.87-21.14Q67.87-17.02 67.68-16.3 67.5-15.58 67.1-15.22 66.69-14.87 65.91-14.6L65.91-14.6Q67.38-14.09 67.57-13.35L67.57-13.35Q67.87-12.18 67.87-8.06L67.87-8.06 67.87-6.47Q68.99-7.2 69.14-9.47L69.14-9.47Q69.26-11.04 69.27-11.87ZM85.05-0.59L85.05-0.59Q83.39 1 81.85 1L81.85 1Q81 1 80.68 0.37L80.68 0.37Q81.24-0.2 81.24-0.76 81.24-1.32 81.07-1.61L81.07-1.61 80.75-2.17 81.14-1.44Q80.56-1.71 80.24-2.34 79.92-2.98 79.92-3.89 79.92-4.81 80.95-5.98L80.95-5.98Q80.46-6.67 80.46-7.5 80.46-8.33 80.74-8.87 81.02-9.42 81.46-9.86L81.46-9.86Q82.44-10.79 83.54-10.79L83.54-10.79Q84.27-10.79 84.59-10.28L84.59-10.28Q83.93-9.57 83.93-8.04 83.93-6.52 84.45-5.44 84.98-4.37 85.88-3.61L85.88-3.61Q87.79-2 90.57-2L90.57-2Q93.67-2 94.87-4.27L94.87-4.27Q95.21-4.96 95.21-5.65 95.21-6.35 94.89-6.9 94.57-7.45 94.06-7.96L94.06-7.96Q93.21-8.79 91.45-9.86L91.45-9.86Q89.76-11.06 87.47-11.06L87.47-11.06Q85.98-11.06 85.47-10.82L85.47-10.82Q85.78-11.55 85.78-12.28 85.78-13.01 84.81-13.88 83.83-14.75 83.06-15.63 82.29-16.5 81.83-17.38L81.83-17.38Q80.9-19.04 80.9-20.9 80.9-22.75 81.67-24.18 82.44-25.61 83.83-26.64L83.83-26.64Q86.74-28.81 91.28-28.81L91.28-28.81Q93.47-28.81 94.29-28.61 95.11-28.42 95.6-28.25L95.6-28.25Q96.26-28 97.21-28 98.16-28 98.54-28.42 98.92-28.83 98.92-29.19 98.92-29.54 98.85-29.74L98.85-29.74Q98.99-29.79 99.28-29.79 99.58-29.79 99.96-29.61 100.33-29.44 100.63-29.15L100.63-29.15Q101.21-28.49 101.21-27.75 101.21-27 100.92-26.61L100.92-26.61Q101.6-25.98 101.6-24.8 101.6-23.63 100.63-22.83L100.63-22.83Q100.85-22.39 100.85-21.75 100.85-21.12 100.16-20.53 99.48-19.95 98.87-19.95L98.87-19.95Q97.82-19.95 97.45-20.21L97.45-20.21Q97.77-21 97.77-21.91 97.77-22.83 97.28-23.66 96.79-24.49 96.04-25L96.04-25Q94.62-25.98 92.67-25.98L92.67-25.98Q90.2-25.98 89.35-24.41L89.35-24.41Q89.08-23.93 89.08-23.35 89.08-22.78 89.24-22.3 89.4-21.83 89.76-21.34L89.76-21.34Q90.47-20.39 91.76-19.53L91.76-19.53Q93.45-18.43 94.11-18.43L94.11-18.43Q95.52-18.43 96.57-19.12L96.57-19.12Q96.28-17.94 96.28-17.48L96.28-17.48Q96.28-16.77 97.4-15.84L97.4-15.84Q100.55-13.67 101.7-11.87L101.7-11.87Q102.8-10.11 102.8-7.96 102.8-5.81 101.85-4.28 100.9-2.76 99.26-1.66L99.26-1.66Q95.87 0.61 91.03 0.61L91.03 0.61Q87.74 0.61 85.05-0.59ZM84.2-22.95L84.2-22.95Q83.49-22.61 83.49-21.06 83.49-19.51 84.49-18.1 85.49-16.7 87.66-14.94L87.66-14.94Q88.18-14.55 88.18-14.18L88.18-14.18Q88.18-13.62 88.08-13.28L88.08-13.28Q88.37-13.35 89.1-13.43L89.1-13.43Q90.89-13.6 93.52-11.77L93.52-11.77Q97.72-9.18 97.72-6.32L97.72-6.32Q97.72-5.25 97.43-4.71L97.43-4.71Q98.31-4.88 98.77-6.2L98.77-6.2Q98.89-6.59 98.89-7.01L98.89-7.01Q98.89-8.98 96.76-11.02 94.62-13.06 90.62-14.97L90.62-14.97Q83.98-18.33 84.2-22.95ZM110.78-0.29L110.78-0.29Q109.66 0.49 108.23 0.49 106.8 0.49 106.11-0.15 105.41-0.78 105.41-1.37L105.41-1.37Q105.41-2.17 105.75-2.64L105.75-2.64Q106.29-2.22 107.12-2.22L107.12-2.22Q108.53-2.22 109.15-3.86L109.15-3.86 109.15-11.38Q109.15-12.6 108.68-13.04L108.68-13.04Q108.12-13.62 106.17-14.58L106.17-14.58Q107.88-15.36 108.34-15.82L108.34-15.82Q109.15-16.63 109.15-17.8L109.15-17.8 109.15-31.62Q109.15-34.4 106.87-34.4L106.87-34.4Q106.04-34.4 105.51-33.98L105.51-33.98Q105.17-34.45 105.17-34.95 105.17-35.45 105.42-35.91 105.68-36.38 106.19-36.77L106.19-36.77Q107.36-37.6 109.12-37.6 110.88-37.6 111.86-37.38L111.86-37.38Q113.2-39.06 114.88-39.06L114.88-39.06Q117.4-39.06 117.4-36.43L117.4-36.43 117.4-24.39Q119.77-28.81 125.14-28.81L125.14-28.81Q131.29-28.81 132.97-23.36L132.97-23.36Q133.51-21.63 133.51-19.43L133.51-19.43 133.51-17.8Q133.51-16.65 134.02-16.14L134.02-16.14Q134.78-15.38 136.49-14.6L136.49-14.6Q134.63-13.7 134.19-13.21L134.19-13.21Q133.51-12.45 133.51-11.38L133.51-11.38 133.51-3.74Q133.97-2.22 135.54-2.22L135.54-2.22Q136.37-2.22 136.9-2.64L136.9-2.64Q137.17-2.27 137.17-1.56 137.17-0.85 136.53-0.18 135.88 0.49 134.46 0.49 133.05 0.49 131.85-0.29L131.85-0.29Q130.75 0.49 129.37 0.49 127.99 0.49 126.97-0.24L126.97-0.24Q126.02 0.49 124.83 0.49 123.65 0.49 122.94-0.12 122.23-0.73 122.23-1.88L122.23-1.88Q122.23-2.42 122.6-2.73L122.6-2.73Q123.16-2.29 123.72-2.29L123.72-2.29Q124.79-2.29 125.26-3.49L125.26-3.49 125.26-18.04Q125.26-22.8 122.94-23.54L122.94-23.54Q122.21-23.78 121.35-23.78L121.35-23.78Q118.81-23.78 117.81-21.09L117.81-21.09Q117.49-20.26 117.4-19.29L117.4-19.29 117.4-3.49Q117.86-2.29 118.94-2.29L118.94-2.29Q119.5-2.29 120.06-2.73L120.06-2.73Q120.42-2.42 120.42-1.57 120.42-0.73 119.72-0.12 119.01 0.49 117.81 0.49 116.62 0.49 115.66-0.24L115.66-0.24Q114.66 0.49 113.3 0.49 111.93 0.49 110.78-0.29ZM111.44-8.08L111.44-6.49Q112.54-7.2 112.73-9.59L112.73-9.59Q112.81-10.64 112.83-11.94 112.86-13.23 112.87-13.78 112.88-14.33 112.88-14.6L112.88-14.6 112.88-16.8Q112.88-17.7 112.88-18.85L112.88-18.85 112.83-21.24Q112.78-27.71 112.61-28.44L112.61-28.44Q112.27-29.98 111.44-30.52L111.44-30.52 111.44-22.29Q111.44-17.24 111.33-16.66 111.22-16.09 111.15-15.82L111.15-15.82Q110.93-15.06 109.49-14.58L109.49-14.58Q110.95-14.06 111.15-13.35L111.15-13.35Q111.44-12.18 111.44-8.08L111.44-8.08ZM127.58-15.26L127.58-6.47Q128.8-6.93 128.95-9.67L128.95-9.67Q129.07-12.4 129.07-14.69 129.07-16.97 128.92-18.41 128.77-19.85 128.44-20.69 128.12-21.53 127.6-21.96 127.09-22.39 126.36-22.75L126.36-22.75Q127.28-20.56 127.43-18.75 127.58-16.94 127.58-15.26L127.58-15.26ZM144.54-0.29L144.54-0.29Q143.42 0.49 141.98 0.49 140.54 0.49 139.89-0.18 139.25-0.85 139.25-1.46L139.25-1.46Q139.25-2.27 139.51-2.64L139.51-2.64Q140.05-2.22 140.88-2.22L140.88-2.22Q142.44-2.22 142.91-3.74L142.91-3.74 142.91-11.33Q142.91-12.4 142.44-12.89L142.44-12.89Q141.74-13.7 139.93-14.58L139.93-14.58Q141.64-15.36 142.1-15.82L142.1-15.82Q142.91-16.63 142.91-17.8L142.91-17.8 142.91-21.36Q142.91-23.44 141.49-23.61L141.49-23.61Q141.08-23.66 140.44-23.66 139.81-23.66 139.27-23.24L139.27-23.24Q138.93-23.71 138.93-24.21 138.93-24.71 139.18-25.33 139.44-25.95 139.95-26.51L139.95-26.51Q141.25-27.83 142.94-27.83 144.64-27.83 145.76-27.29L145.76-27.29Q147.11-28.81 148.5-28.81 149.89-28.81 150.43-28.16 150.96-27.51 150.96-26.17L150.96-26.17 150.96-23.88Q152.23-26.15 154.43-27.48 156.63-28.81 159.09-28.81 161.56-28.81 163.06-28.16 164.56-27.51 165.54-26.32L165.54-26.32Q167.44-23.95 167.44-19.43L167.44-19.43 167.44-17.82Q167.44-16.65 167.96-16.14L167.96-16.14Q168.71-15.36 170.42-14.58L170.42-14.58Q168.59-13.67 168.13-13.21L168.13-13.21Q167.44-12.45 167.44-11.38L167.44-11.38 167.44-3.74Q167.91-2.22 169.47-2.22L169.47-2.22Q170.3-2.22 170.84-2.64L170.84-2.64Q171.11-2.27 171.11-1.56 171.11-0.85 170.46-0.18 169.81 0.49 168.47 0.49 167.13 0.49 166.03-0.27L166.03-0.27Q165.05 0.49 163.74 0.49 162.44 0.49 161.41-0.24L161.41-0.24Q160.34 0.49 159.12 0.49 157.9 0.49 157.19-0.12 156.48-0.73 156.48-1.88L156.48-1.88Q156.48-2.42 156.85-2.73L156.85-2.73Q157.41-2.29 157.97-2.29L157.97-2.29Q159.05-2.29 159.51-3.49L159.51-3.49 159.51-18.04Q159.51-22.78 157.19-23.54L157.19-23.54Q156.43-23.78 155.55-23.78 154.68-23.78 153.92-23.43 153.16-23.07 152.55-22.44L152.55-22.44Q151.21-21.02 150.96-19.07L150.96-19.07 150.96-3.49Q151.43-2.29 152.5-2.29L152.5-2.29Q153.06-2.29 153.63-2.73L153.63-2.73Q153.99-2.42 153.99-1.57 153.99-0.73 153.28-0.12 152.58 0.49 151.42 0.49 150.26 0.49 149.3-0.24L149.3-0.24Q148.38 0.49 147.03 0.49 145.69 0.49 144.54-0.29ZM161.85-15.77L161.85-6.47Q163.07-6.93 163.2-9.67L163.2-9.67Q163.34-12.4 163.34-14.82 163.34-17.24 163.15-18.81 162.95-20.39 162.59-21.28 162.22-22.17 161.72-22.57 161.22-22.97 160.63-23.27L160.63-23.27Q161.56-21.07 161.71-19.26 161.85-17.46 161.85-15.77L161.85-15.77ZM146.65-11.87Q146.67-12.67 146.68-13.22 146.69-13.77 146.69-14.11 146.69-14.45 146.69-14.81 146.69-15.16 146.68-15.75 146.67-16.33 146.65-17.04 146.64-17.75 146.59-18.43L146.59-18.43Q146.52-20.12 146.37-20.75L146.37-20.75Q146.08-22.17 145.25-22.71L145.25-22.71 145.25-21.12Q145.25-17.02 145.07-16.3 144.88-15.58 144.48-15.21 144.08-14.84 143.3-14.58L143.3-14.58Q144.76-14.06 144.96-13.35L144.96-13.35Q145.25-12.18 145.25-8.08L145.25-8.08 145.25-6.49Q146.37-7.23 146.55-9.47L146.55-9.47Q146.64-11.06 146.65-11.87ZM190.81-2.32L190.81-2.32Q188.58 0.61 184.14 0.61L184.14 0.61Q178.72 0.61 176.01-2.64L176.01-2.64Q174.84-4.03 174.4-5.74L174.4-5.74Q174.15-6.76 173.54-7.31 172.93-7.86 172.03-8.3L172.03-8.3Q173.79-9.11 174.55-11.33L174.55-11.33Q175.35-13.67 177.23-14.72L177.23-14.72Q179.26-15.82 181.7-15.88 184.14-15.94 185.31-16.04 186.48-16.14 187.39-16.36L187.39-16.36Q189.07-16.75 190.02-17.8L190.02-17.8 190.02-21.46Q190.02-23.88 189.04-25 188.05-26.12 186.03-26.12 184.02-26.12 183.05-25.38 182.09-24.63 182.09-23.39L182.09-23.39Q182.09-21.48 184.04-21.53L184.04-21.53Q183.65-19.63 181.99-19.63L181.99-19.63Q181.5-19.63 181.04-19.8L181.04-19.8 181.04-19.73Q181.04-19.09 181.63-18.92L181.63-18.92Q181.02-17.99 179.57-18.02 178.13-18.04 177.33-19.56L177.33-19.56Q176.96-19.46 176.49-19.46 176.01-19.46 175.44-19.78 174.86-20.09 174.52-20.65L174.52-20.65Q175.74-21.39 176.01-22.92L176.01-22.92Q176.3-24.8 179.01-26.73L179.01-26.73Q182.28-29.05 187.36-29.05L187.36-29.05Q195.79-29.05 197.64-23.88L197.64-23.88Q198.25-22.14 198.25-19.78L198.25-19.78 198.25-17.8Q198.25-16.6 198.85-15.84 199.45-15.09 200.89-14.6L200.89-14.6Q199.35-13.89 198.91-13.33L198.91-13.33Q198.25-12.48 198.25-11.38L198.25-11.38 198.25-4.05Q198.96-2.22 200.28-2.22L200.28-2.22Q201.11-2.22 201.65-2.64L201.65-2.64Q201.99-2.17 201.99-1.48 201.99-0.78 201.29-0.15 200.6 0.49 199.2 0.49 197.81 0.49 196.62-0.29L196.62-0.29Q195.57 0.49 194.75 0.49 193.93 0.49 193.33 0.33 192.73 0.17 192.22-0.17L192.22-0.17Q191.07-0.93 190.81-2.32ZM192.34-22.73L192.34-6.47Q193.76-7.03 193.83-11.87L193.83-11.87Q193.83-12.89 193.83-14.21 193.83-15.53 193.82-16.47 193.81-17.41 193.78-18.26L193.78-18.26Q193.69-21.34 193.22-21.94 192.76-22.53 192.34-22.73L192.34-22.73ZM183.33-8.2L183.33-8.2Q183.33-7.18 183.55-6.2 183.77-5.22 184.21-4.49L184.21-4.49Q185.19-2.95 186.97-2.95L186.97-2.95Q188.32-2.95 189.19-4.05L189.19-4.05Q190.02-5.13 190.02-6.81L190.02-6.81 190.02-14.77Q188.46-13.87 186.02-13.53L186.02-13.53Q183.33-13.11 183.33-8.2ZM179.67-2.71L179.67-2.71Q179.92-2.88 179.92-3.15L179.92-3.15Q179.92-3.52 179.57-4.17L179.57-4.17Q178.35-6.42 178.35-7.86 178.35-9.3 178.46-9.94 178.57-10.57 178.76-11.02 178.94-11.47 179.17-11.82 179.4-12.16 179.57-12.43L179.57-12.43Q179.89-12.99 179.89-13.2 179.89-13.4 179.67-13.55L179.67-13.55Q178.67-13.09 178.21-12.45L178.21-12.45Q177.38-11.33 176.99-9.55L176.99-9.55Q176.89-9.03 175.28-8.3L175.28-8.3Q176.84-7.59 176.99-7.06L176.99-7.06Q177.82-4.15 179.67-2.71Z" opacity="1" transform="matrix(1,0,0,1,0,0)" fill="#61777f" class="undefined-text-0" data-fill-palette-color="primary" id="text-0"></path></svg></g></svg></g><g transform="matrix(1,0,0,1,0,46.361670369668246)"><svg viewBox="0 0 192 25.002977761574922" height="25.002977761574922" width="192"><g transform="matrix(1,0,0,1,0,0)"><svg width="192" viewBox="-4.550000190734863 -35.650001525878906 369.75 48.150001525878906" height="25.002977761574922" data-palette-color="#61777f"><path d="M9.35-19.2L6.4-5.2Q6.6-4.65 7.1-4.35 7.6-4.05 8.3-4.05L8.3-4.05Q11.45-4.05 13.38-8.1 15.3-12.15 15.3-17.5L15.3-17.5Q15.3-19.55 14.7-20.6 14.1-21.65 12.8-21.65L12.8-21.65Q11.9-21.65 10.95-20.98 10-20.3 9.35-19.2L9.35-19.2ZM5.6-1.5L3 10.7-4.55 12.5 3.8-26.85 11-26.85 10.2-23.1Q11.45-24.15 12.9-24.7 14.35-25.25 16.05-25.25L16.05-25.25Q19.05-25.25 20.6-23.25 22.15-21.25 22.15-17.35L22.15-17.35Q22.15-9.7 18.88-4.7 15.6 0.3 9.85 0.3L9.85 0.3Q8.25 0.3 7.18-0.15 6.1-0.6 5.6-1.5L5.6-1.5ZM45.51-20.65L45.51-20.65Q45.51-16.5 42.11-13.43 38.71-10.35 34.01-10.1L34.01-10.1Q33.96-9.25 33.93-8.83 33.91-8.4 33.91-8.1L33.91-8.1Q33.91-5.8 34.68-4.85 35.46-3.9 37.51-3.9L37.51-3.9Q39.86-3.9 41.83-4.98 43.81-6.05 46.36-8.95L46.36-8.95 48.06-8.95Q45.16-4.25 41.76-1.98 38.36 0.3 34.31 0.3L34.31 0.3Q30.46 0.3 28.48-1.7 26.51-3.7 26.51-7.65L26.51-7.65Q26.51-10.5 27.41-13.7 28.31-16.9 29.81-19.4L29.81-19.4Q31.66-22.4 34.23-23.93 36.81-25.45 40.01-25.45L40.01-25.45Q42.76-25.45 44.13-24.28 45.51-23.1 45.51-20.65ZM40.41-22.8L40.41-22.8Q38.71-22.8 36.98-19.78 35.26-16.75 34.41-12.5L34.41-12.5Q37.31-12.7 39.48-15.18 41.66-17.65 41.66-20.75L41.66-20.75Q41.66-21.8 41.36-22.3 41.06-22.8 40.41-22.8ZM58.81-19L54.81 0 47.61 0 52.91-25 60.11-25 59.46-21.9Q61.66-23.75 62.94-24.38 64.21-25 65.51-25L65.51-25Q67.06-25 68.01-23.93 68.96-22.85 68.96-21.25L68.96-21.25Q68.96-19.7 67.96-18.65 66.96-17.6 65.36-17.6L65.36-17.6Q64.51-17.6 64.04-18 63.56-18.4 63.36-19.65L63.36-19.65Q63.21-20.45 63.01-20.68 62.81-20.9 62.46-20.9L62.46-20.9Q61.61-20.9 60.86-20.55 60.11-20.2 58.81-19L58.81-19ZM83.72-8.35L83.72-8.35Q83.72-7.75 83.67-7.3 83.62-6.85 83.52-6.45L83.52-6.45Q84.52-7.05 85.47-7.7 86.42-8.35 87.12-8.95L87.12-8.95 89.22-8.95Q87.67-7.15 85.79-5.63 83.92-4.1 81.57-2.7L81.57-2.7Q80.22-1.25 78.12-0.48 76.02 0.3 73.72 0.3L73.72 0.3Q70.37 0.3 68.39-1.53 66.42-3.35 66.42-6.1L66.42-6.1Q66.42-7.65 67.17-8.93 67.92-10.2 69.07-10.75L69.07-10.75Q70.77-13.8 72.24-17.28 73.72-20.75 75.22-25.55L75.22-25.55 82.62-26.55Q82.77-22.8 82.97-19.7 83.17-16.6 83.47-12.95L83.47-12.95Q83.62-10.85 83.67-10 83.72-9.15 83.72-8.35ZM75.52-20.15L75.52-20.15Q74.87-18.1 73.94-15.88 73.02-13.65 71.47-10.7L71.47-10.7Q72.02-10.45 72.32-10 72.62-9.55 72.62-8.95L72.62-8.95Q72.62-8 71.97-7.25 71.32-6.5 70.42-6.5L70.42-6.5Q69.92-6.5 69.57-6.68 69.22-6.85 69.07-7.15L69.07-7.15Q69.07-5.3 69.79-4.48 70.52-3.65 72.12-3.65L72.12-3.65Q74.17-3.65 75.32-4.85 76.47-6.05 76.47-8.3L76.47-8.3Q76.47-9 76.42-9.73 76.37-10.45 76.22-12.15L76.22-12.15Q75.97-14.5 75.82-16.3 75.67-18.1 75.52-20.15ZM89.93-7.7L89.93-7.7Q89.93-10.55 90.85-13.75 91.78-16.95 93.38-19.45L93.38-19.45Q95.23-22.4 97.83-23.93 100.43-25.45 103.63-25.45L103.63-25.45Q106.83-25.45 108.43-23.45 110.03-21.45 110.03-17.45L110.03-17.45Q110.13-17.4 110.25-17.38 110.38-17.35 110.58-17.35L110.58-17.35Q112.13-17.35 114.28-18.2 116.43-19.05 118.28-20.35L118.28-20.35 118.73-19Q117.33-17.5 115-16.4 112.68-15.3 109.88-14.85L109.88-14.85Q109.28-8.1 105.98-3.95 102.68 0.2 97.93 0.2L97.93 0.2Q94.03 0.2 91.98-1.8 89.93-3.8 89.93-7.7ZM104.03-22.4L104.03-22.4Q101.63-22.4 99.5-17.55 97.38-12.7 97.38-8.35L97.38-8.35Q97.38-6 97.9-5.15 98.43-4.3 99.93-4.3L99.93-4.3Q101.78-4.3 103.45-7.3 105.13-10.3 105.73-14.7L105.73-14.7Q105.03-14.85 104.7-15.38 104.38-15.9 104.38-16.8L104.38-16.8Q104.38-17.75 104.78-18.45 105.18-19.15 105.93-19.5L105.93-19.5Q105.83-21.1 105.4-21.75 104.98-22.4 104.03-22.4ZM128.08-5.35L128.08-5.35Q128.08-6.25 128.31-7.6 128.53-8.95 129.23-11.9L129.23-11.9Q129.93-14.75 130.13-16 130.33-17.25 130.33-18.1L130.33-18.1Q130.33-19.35 129.88-20 129.43-20.65 128.53-20.65L128.53-20.65Q127.33-20.65 126.31-19.43 125.28-18.2 124.63-16.05L124.63-16.05 121.23 0 114.03 0 119.33-25 126.53-25 125.98-22.4Q127.23-23.8 128.68-24.5 130.13-25.2 131.83-25.2L131.83-25.2Q134.48-25.2 135.93-23.75 137.38-22.3 137.38-19.55L137.38-19.55Q137.38-18.4 137.11-16.82 136.83-15.25 136.03-12L136.03-12Q135.38-9.45 135.18-8.4 134.98-7.35 134.98-6.65L134.98-6.65Q134.98-5.6 135.48-5.08 135.98-4.55 136.98-4.55L136.98-4.55Q138.23-4.55 139.13-5.4 140.03-6.25 141.18-8.95L141.18-8.95 143.28-8.95Q141.68-4.3 139.41-2 137.13 0.3 133.98 0.3L133.98 0.3Q131.18 0.3 129.63-1.23 128.08-2.75 128.08-5.35ZM161.04-22.7L161.04-22.7 161.04-22.35 161.59-25 168.79-25 165.19-8Q165.09-7.55 165.04-7.18 164.99-6.8 164.99-6.4L164.99-6.4Q164.99-5.3 165.49-4.78 165.99-4.25 167.04-4.25L167.04-4.25Q168.34-4.25 169.39-5.48 170.44-6.7 171.09-8.95L171.09-8.95 173.19-8.95Q171.59-4.35 169.04-2.02 166.49 0.3 163.14 0.3L163.14 0.3Q160.99 0.3 159.71-0.9 158.44-2.1 158.24-4.3L158.24-4.3Q156.69-2 154.81-0.85 152.94 0.3 150.79 0.3L150.79 0.3Q147.69 0.3 145.91-1.8 144.14-3.9 144.14-7.75L144.14-7.75Q144.14-10.55 144.99-13.6 145.84-16.65 147.34-19.15L147.34-19.15Q149.19-22.1 151.64-23.68 154.09-25.25 156.99-25.25L156.99-25.25Q158.94-25.25 159.99-24.58 161.04-23.9 161.04-22.7ZM158.19-8.95L160.59-20.25Q160.59-21 160.04-21.58 159.49-22.15 158.54-22.15L158.54-22.15Q155.79-22.15 153.66-17.55 151.54-12.95 151.54-8.45L151.54-8.45Q151.54-6.5 152.09-5.53 152.64-4.55 154.04-4.55L154.04-4.55Q155.34-4.55 156.56-5.8 157.79-7.05 158.19-8.95L158.19-8.95ZM173.8-5.7L173.8-5.7Q173.8-6.35 173.9-7.18 174-8 174.2-8.95L174.2-8.95 179.55-34 186.95-35 181.2-8Q181.1-7.55 181.05-7.18 181-6.8 181-6.4L181-6.4Q181-5.4 181.47-4.98 181.95-4.55 183.05-4.55L183.05-4.55Q184.45-4.55 185.7-5.78 186.95-7 187.55-8.95L187.55-8.95 189.65-8.95Q188.05-4.4 185.35-2.05 182.65 0.3 179.15 0.3L179.15 0.3Q176.65 0.3 175.22-1.28 173.8-2.85 173.8-5.7ZM204.21-5.7L204.21-5.7Q204.21-6.35 204.31-7.18 204.41-8 204.61-8.95L204.61-8.95 208.01-25 215.21-25 211.61-8Q211.56-7.7 211.51-7.38 211.46-7.05 211.46-6.75L211.46-6.75Q211.46-5.7 211.83-5.13 212.21-4.55 212.96-4.55L212.96-4.55Q214.26-4.55 215.28-5.68 216.31-6.8 216.96-8.95L216.96-8.95 220.36-25 227.56-25 223.96-8Q223.86-7.45 223.78-6.98 223.71-6.5 223.71-6.2L223.71-6.2Q223.71-5.4 224.13-4.98 224.56-4.55 225.41-4.55L225.41-4.55Q227.16-4.55 228.83-6.38 230.51-8.2 231.86-11.55L231.86-11.55Q232.86-13.95 233.46-16.6 234.06-19.25 234.06-21.25L234.06-21.25Q233.96-21.05 233.43-20.9 232.91-20.75 232.46-20.75L232.46-20.75Q231.66-20.75 231.16-21.53 230.66-22.3 230.66-23.3L230.66-23.3Q230.66-24.55 231.48-25.28 232.31-26 233.76-26L233.76-26Q235.31-26 236.11-24.85 236.91-23.7 236.91-21.65L236.91-21.65Q236.91-18.25 236.03-14.53 235.16-10.8 233.66-7.75L233.66-7.75Q231.66-3.8 228.86-1.75 226.06 0.3 222.66 0.3L222.66 0.3Q220.16 0.3 218.63-0.78 217.11-1.85 216.66-3.9L216.66-3.9Q215.21-1.8 213.48-0.75 211.76 0.3 209.56 0.3L209.56 0.3Q207.06 0.3 205.63-1.28 204.21-2.85 204.21-5.7ZM259.67-20.65L259.67-20.65Q259.67-16.5 256.27-13.43 252.87-10.35 248.17-10.1L248.17-10.1Q248.12-9.25 248.09-8.83 248.07-8.4 248.07-8.1L248.07-8.1Q248.07-5.8 248.84-4.85 249.62-3.9 251.67-3.9L251.67-3.9Q254.02-3.9 255.99-4.98 257.97-6.05 260.52-8.95L260.52-8.95 262.22-8.95Q259.32-4.25 255.92-1.98 252.52 0.3 248.47 0.3L248.47 0.3Q244.62 0.3 242.64-1.7 240.67-3.7 240.67-7.65L240.67-7.65Q240.67-10.5 241.57-13.7 242.47-16.9 243.97-19.4L243.97-19.4Q245.82-22.4 248.39-23.93 250.97-25.45 254.17-25.45L254.17-25.45Q256.92-25.45 258.29-24.28 259.67-23.1 259.67-20.65ZM254.57-22.8L254.57-22.8Q252.87-22.8 251.14-19.78 249.42-16.75 248.57-12.5L248.57-12.5Q251.47-12.7 253.64-15.18 255.82-17.65 255.82-20.75L255.82-20.75Q255.82-21.8 255.52-22.3 255.22-22.8 254.57-22.8ZM270.77 0.3L270.77 0.3Q267.42 0.3 265.6-1.38 263.77-3.05 263.77-6.1L263.77-6.1Q263.77-6.8 263.87-7.5 263.97-8.2 264.12-8.95L264.12-8.95 269.47-34 276.87-35 274.47-23.75Q275.67-24.5 276.6-24.83 277.52-25.15 278.57-25.15L278.57-25.15Q281.52-25.15 283-23.03 284.47-20.9 284.47-16.6L284.47-16.6Q284.47-13.65 283.57-10.55 282.67-7.45 281.07-5.15L281.07-5.15Q279.22-2.45 276.62-1.07 274.02 0.3 270.77 0.3ZM270.92-6.85L270.92-6.85Q270.92-5.7 271.6-5.13 272.27-4.55 273.57-4.55L273.57-4.55Q275.82-4.55 277.62-8.5 279.42-12.45 279.42-16.8L279.42-16.8Q279.42-18.9 278.7-20.25 277.97-21.6 276.77-21.6L276.77-21.6Q275.97-21.6 275.07-21.35 274.17-21.1 273.82-20.7L273.82-20.7 271.07-8Q271.02-7.7 270.97-7.4 270.92-7.1 270.92-6.85ZM305.13-8.35L305.13-8.35Q305.13-7.75 305.08-7.3 305.03-6.85 304.93-6.45L304.93-6.45Q305.93-7.05 306.88-7.7 307.83-8.35 308.53-8.95L308.53-8.95 310.63-8.95Q309.08-7.15 307.2-5.63 305.33-4.1 302.98-2.7L302.98-2.7Q301.63-1.25 299.53-0.48 297.43 0.3 295.13 0.3L295.13 0.3Q291.78 0.3 289.8-1.53 287.83-3.35 287.83-6.1L287.83-6.1Q287.83-7.65 288.58-8.93 289.33-10.2 290.48-10.75L290.48-10.75Q292.18-13.8 293.65-17.28 295.13-20.75 296.63-25.55L296.63-25.55 304.03-26.55Q304.18-22.8 304.38-19.7 304.58-16.6 304.88-12.95L304.88-12.95Q305.03-10.85 305.08-10 305.13-9.15 305.13-8.35ZM296.93-20.15L296.93-20.15Q296.28-18.1 295.35-15.88 294.43-13.65 292.88-10.7L292.88-10.7Q293.43-10.45 293.73-10 294.03-9.55 294.03-8.95L294.03-8.95Q294.03-8 293.38-7.25 292.73-6.5 291.83-6.5L291.83-6.5Q291.33-6.5 290.98-6.68 290.63-6.85 290.48-7.15L290.48-7.15Q290.48-5.3 291.2-4.48 291.93-3.65 293.53-3.65L293.53-3.65Q295.58-3.65 296.73-4.85 297.88-6.05 297.88-8.3L297.88-8.3Q297.88-9 297.83-9.73 297.78-10.45 297.63-12.15L297.63-12.15Q297.38-14.5 297.23-16.3 297.08-18.1 296.93-20.15ZM323.98-31.65L323.98-31.65Q323.98-30 322.81-28.85 321.63-27.7 319.98-27.7L319.98-27.7Q318.33-27.7 317.18-28.85 316.03-30 316.03-31.65L316.03-31.65Q316.03-33.3 317.18-34.48 318.33-35.65 319.98-35.65L319.98-35.65Q321.63-35.65 322.81-34.48 323.98-33.3 323.98-31.65ZM311.23-5.7L311.23-5.7Q311.23-6.35 311.33-7.18 311.43-8 311.63-8.95L311.63-8.95 315.03-25 322.23-25 318.63-8Q318.53-7.55 318.48-7.18 318.43-6.8 318.43-6.4L318.43-6.4Q318.43-5.4 318.91-4.98 319.38-4.55 320.48-4.55L320.48-4.55Q321.88-4.55 323.13-5.78 324.38-7 324.98-8.95L324.98-8.95 327.08-8.95Q325.48-4.4 322.78-2.05 320.08 0.3 316.58 0.3L316.58 0.3Q314.08 0.3 312.66-1.28 311.23-2.85 311.23-5.7ZM329.44-23L329.84-25 331.49-25 332.99-31.9 340.39-32.9 338.69-25 341.69-25 341.29-23 338.29-23 335.09-8Q334.99-7.55 334.94-7.18 334.89-6.8 334.89-6.4L334.89-6.4Q334.89-5.4 335.37-4.98 335.84-4.55 336.94-4.55L336.94-4.55Q338.34-4.55 339.59-5.78 340.84-7 341.44-8.95L341.44-8.95 343.54-8.95Q341.94-4.4 339.24-2.05 336.54 0.3 333.04 0.3L333.04 0.3Q330.54 0.3 329.12-1.28 327.69-2.85 327.69-5.7L327.69-5.7Q327.69-6.35 327.79-7.18 327.89-8 328.09-8.95L328.09-8.95 331.09-23 329.44-23ZM362.65-20.65L362.65-20.65Q362.65-16.5 359.25-13.43 355.85-10.35 351.15-10.1L351.15-10.1Q351.1-9.25 351.07-8.83 351.05-8.4 351.05-8.1L351.05-8.1Q351.05-5.8 351.82-4.85 352.6-3.9 354.65-3.9L354.65-3.9Q357-3.9 358.97-4.98 360.95-6.05 363.5-8.95L363.5-8.95 365.2-8.95Q362.3-4.25 358.9-1.98 355.5 0.3 351.45 0.3L351.45 0.3Q347.6 0.3 345.62-1.7 343.65-3.7 343.65-7.65L343.65-7.65Q343.65-10.5 344.55-13.7 345.45-16.9 346.95-19.4L346.95-19.4Q348.8-22.4 351.37-23.93 353.95-25.45 357.15-25.45L357.15-25.45Q359.9-25.45 361.27-24.28 362.65-23.1 362.65-20.65ZM357.55-22.8L357.55-22.8Q355.85-22.8 354.12-19.78 352.4-16.75 351.55-12.5L351.55-12.5Q354.45-12.7 356.62-15.18 358.8-17.65 358.8-20.75L358.8-20.75Q358.8-21.8 358.5-22.3 358.2-22.8 357.55-22.8Z" opacity="1" transform="matrix(1,0,0,1,0,0)" fill="#61777f" class="undefined-text-1" data-fill-palette-color="secondary" id="text-1"></path></svg></g></svg></g></svg></g></svg></g><g transform="matrix(1,0,0,1,55.743043308757485,0)"><svg viewBox="0 0 80.51391338248503 98.62594371737808" height="98.62594371737808" width="80.51391338248503"><g><svg xmlns="http://www.w3.org/2000/svg" xmlns:xlink="http://www.w3.org/1999/xlink" version="1.1" x="0" y="0" viewBox="0 0.0010929107666015625 102.86000061035156 125.9989013671875" style="enable-background:new 0 0 102.859 126.001;" xml:space="preserve" width="80.51391338248503" height="98.62594371737808" class="icon-icon-0" data-fill-palette-color="accent" id="icon-0"><g fill="#61777f" data-fill-palette-color="accent"><path d="M59.728 53.013c1.084 0.308 2.185 0.463 3.272 0.463s2.188-0.155 3.272-0.463c0.531-0.15 0.84-0.703 0.689-1.234-0.15-0.531-0.704-0.842-1.234-0.689-1.813 0.514-3.642 0.514-5.455 0-0.53-0.152-1.084 0.158-1.234 0.689C58.887 52.309 59.196 52.862 59.728 53.013z" fill="#61777f" data-fill-palette-color="accent"></path><path d="M69.614 42.952c2.621-2.051 5.062-2.052 7.685 0 0.183 0.144 0.4 0.213 0.616 0.213 0.297 0 0.591-0.132 0.788-0.384 0.34-0.435 0.264-1.063-0.171-1.403-3.32-2.6-6.83-2.6-10.15 0-0.435 0.34-0.512 0.969-0.171 1.403S69.18 43.293 69.614 42.952z" fill="#61777f" data-fill-palette-color="accent"></path><path d="M47.469 41.378c-0.435 0.34-0.512 0.969-0.171 1.403s0.97 0.512 1.404 0.171c2.623-2.052 5.063-2.05 7.685 0 0.183 0.144 0.4 0.213 0.616 0.213 0.297 0 0.591-0.132 0.788-0.384 0.34-0.435 0.264-1.063-0.171-1.403C54.298 38.777 50.789 38.777 47.469 41.378z" fill="#61777f" data-fill-palette-color="accent"></path><path d="M63 19.271c2.546 0 4.617-2.071 4.617-4.617S65.546 10.037 63 10.037s-4.617 2.071-4.617 4.617S60.454 19.271 63 19.271zM63 12.037c1.443 0 2.617 1.174 2.617 2.617S64.443 17.271 63 17.271s-2.617-1.174-2.617-2.617S61.557 12.037 63 12.037z" fill="#61777f" data-fill-palette-color="accent"></path><path d="M36.087 13.499c0-1.717-1.396-3.113-3.113-3.113s-3.113 1.396-3.113 3.113c0 1.716 1.396 3.112 3.113 3.112S36.087 15.215 36.087 13.499zM32.974 14.611c-0.614 0-1.113-0.499-1.113-1.112 0-0.614 0.499-1.113 1.113-1.113s1.113 0.499 1.113 1.113C34.087 14.112 33.588 14.611 32.974 14.611z" fill="#61777f" data-fill-palette-color="accent"></path><path d="M63 95.643c-2.327 0-4.149 2.612-4.149 5.947 0 3.334 1.822 5.946 4.149 5.946s4.149-2.612 4.149-5.946C67.149 98.256 65.327 95.643 63 95.643zM63 105.537c-1.017 0-2.149-1.621-2.149-3.946 0-2.326 1.132-3.947 2.149-3.947s2.149 1.621 2.149 3.947C65.149 103.916 64.017 105.537 63 105.537z" fill="#61777f" data-fill-palette-color="accent"></path><path d="M102.806 125.265c0.02-0.071 0.04-0.14 0.044-0.216 0.001-0.017 0.01-0.031 0.01-0.048 0-0.048-0.021-0.089-0.027-0.135-0.007-0.052 0.001-0.103-0.015-0.155-0.066-0.218-0.123-0.435-0.179-0.65-0.478-1.852-0.687-4.967-0.908-8.265-0.404-6.022-0.862-12.848-3.088-16.469-0.636-1.036-1.408-1.868-2.242-2.55-0.126-0.605-0.197-1.201-0.187-1.809 0.023-1.476 0.474-2.415 0.996-3.503 0.773-1.613 1.65-3.442 1.428-7.168-0.186-3.108-1.026-4.785-1.839-6.406-0.815-1.626-1.584-3.161-1.625-6.313-0.039-3.033 0.857-4.835 1.805-6.742 0.994-2 2.022-4.067 2.022-7.479 0-3.852-1.303-6.044-2.453-7.979-0.845-1.422-1.575-2.649-1.673-4.38-0.093-1.614 0.371-2.715 0.958-4.108 0.86-2.044 1.932-4.588 1.338-9.492-0.742-6.138-4.079-9.581-5.835-10.999 0.365-0.304 0.76-0.603 1.191-0.896 0.295-0.201 0.46-0.544 0.435-0.899-0.026-0.355-0.239-0.671-0.56-0.827-2.096-1.02-4.04-1.448-5.734-1.317-1.269-4.684-4.897-7.568-10.789-8.594-0.729-1.283-1.999-2.057-3.576-2.106-0.349-0.039-0.643 0.143-0.838 0.407-0.195 0.266-0.247 0.61-0.138 0.921 0.447 1.282 0.425 2.353-0.06 3.014-0.316 0.43-0.8 0.645-1.294 0.742-0.175-3.259-1.198-4.253-2.688-5.33-1.065-0.771-2.272-1.644-3.334-4.828-0.142-0.425-0.554-0.71-0.998-0.683-0.448 0.022-0.827 0.34-0.926 0.777-0.722 3.173-1.866 3.967-3.077 4.808-1.32 0.917-2.68 1.861-2.912 5.257-0.498-0.097-0.985-0.311-1.302-0.743-0.485-0.661-0.507-1.731-0.06-3.014 0.108-0.311 0.057-0.655-0.138-0.921-0.195-0.265-0.489-0.446-0.838-0.407-1.576 0.049-2.846 0.824-3.576 2.106-3.039 0.529-5.48 1.548-7.3 3.059-0.692-3.541-3.245-6.518-7.759-9.048-0.293-0.165-0.651-0.172-0.949-0.016-0.299 0.154-0.5 0.449-0.535 0.784-0.005 0.05-0.01 0.099-0.014 0.147-2.819-1.905-6.102-2.839-9.757-2.789-0.045 0.001-0.085 0.017-0.128 0.023-0.043 0.006-0.084 0.011-0.127 0.023-0.092 0.026-0.177 0.066-0.257 0.116-0.019 0.012-0.041 0.014-0.06 0.027-0.004 0.003-0.006 0.008-0.011 0.011-0.097 0.072-0.179 0.162-0.245 0.265-0.019 0.031-0.028 0.064-0.044 0.097-0.029 0.058-0.063 0.112-0.08 0.176-0.868 3.212-0.851 6.322 0.045 9.278-0.204-0.031-0.419-0.055-0.646-0.07-0.294-0.009-0.58 0.091-0.785 0.301s-0.307 0.5-0.279 0.792c0.509 5.359 1.96 8.939 4.435 10.944 1.525 1.235 3.447 1.856 5.728 1.856 0.068 0 0.144-0.012 0.213-0.013-1.227 1.839-2.346 4.321-2.739 7.566-0.593 4.904 0.478 7.448 1.338 9.492 0.587 1.394 1.051 2.494 0.958 4.109-0.099 1.729-0.829 2.957-1.673 4.379C28.303 51.312 27 53.505 27 57.356c0 3.412 1.028 5.479 2.022 7.479 0.948 1.907 1.844 3.709 1.805 6.742-0.023 1.813-0.885 3.01-1.718 4.166-0.748 1.039-1.503 2.11-1.396 3.433-0.908 0.607-1.411 1.608-1.496 2.902L24.77 72.025c-0.207-0.854-1.223-2.472-3.588-2.472-2.463 0-3.295 1.94-3.394 3.024l-0.165 4.856c-0.67-0.031-1.355 0.093-1.99 0.425-0.925 0.484-1.606 1.301-1.917 2.298-0.02 0.064-0.024 0.129-0.04 0.193-0.989-0.373-2.122-0.353-3.129 0.175-1.14 0.598-1.846 1.694-2.009 2.881-0.002 0.013-0.011 0.023-0.013 0.036 0 0-0.082 0.559-0.207 1.531l-5.488 1.203c-0.005 0.001-0.008 0.005-0.013 0.006C1.222 86.332 0 88.005 0 90.138c0 2.233 1.335 3.982 3.039 3.985 0.001 0 0.002 0 0.003 0 0 0 0 0 0.001 0s0 0 0 0c0.002 0 0.003-0.001 0.005-0.001 0.069 0 0.14-0.008 0.211-0.023l0.046-0.01c0.188-0.02 0.37-0.059 0.546-0.121l3.597-0.794-0.05 0.589c-0.249 2.893-0.515 6.02-0.628 9.1-0.001 0.024-0.003 0.046-0.002 0.07-0.221 6.139 0.181 12.075 2.612 15.545 3.401 4.854 10.546 7.522 20.128 7.522 0.039 0 0.079 0 0.117 0h0.168 72.067c0 0 0 0 0 0 0 0 0 0 0 0 0.096 0 0.194-0.014 0.291-0.043 0.018-0.005 0.03-0.019 0.047-0.025 0.065-0.024 0.12-0.06 0.178-0.096 0.054-0.033 0.109-0.062 0.155-0.104 0.045-0.041 0.078-0.092 0.115-0.141 0.041-0.054 0.082-0.104 0.111-0.165C102.78 125.376 102.79 125.32 102.806 125.265zM99.734 115.93c0.217 3.234 0.41 6.056 0.841 8.071h-4.483c-0.468-2.61-0.673-5.298-0.814-7.649l-0.094-1.668c-0.281-5.08-0.523-9.467-2.422-11.701-1.622-1.904-4.319-2.74-7.211-2.226-3.287 0.579-6.068 2.72-7.069 5.41-0.021 0.05-0.048 0.119-0.081 0.207-0.148 0.398-0.456 1.228-1.278 2.185-1.305 1.517-3.313 2.656-5.97 3.389-2.262 0.629-5.052 0.938-8.148 0.934-5.018-0.021-9.569-3.656-13.424-8.733-0.018-0.029-0.038-0.054-0.06-0.081-0.952-1.26-1.86-2.609-2.724-4.012-0.027-0.057-0.06-0.109-0.098-0.16-0.81-1.326-1.579-2.696-2.304-4.089-0.031-0.089-0.073-0.169-0.129-0.247-0.271-0.526-0.537-1.053-0.796-1.583 0.234-0.205 0.468-0.405 0.701-0.601 1.263 0.875 2.625 1.351 4.089 1.374-0.931 1.38-1.391 3.081-0.358 4.777 1.424 2.342 4.354 2.075 6.599 1.283-0.134 5.432 2.504 8.844 8.196 10.671 0.1 0.032 0.203 0.048 0.306 0.048s0.206-0.016 0.306-0.048c5.692-1.827 8.331-5.239 8.196-10.671 2.247 0.792 5.175 1.058 6.599-1.283 1.033-1.696 0.573-3.396-0.358-4.776 1.735-0.027 3.337-0.653 4.786-1.878 0.012-0.01 0.017-0.026 0.029-0.037 0.012-0.011 0.029-0.015 0.041-0.028 0.009-0.011 0.97-0.966 2.434-0.137 0.475 0.27 0.727 0.867 0.853 1.394-2.888 0.684-4.926 2.771-6.053 6.24-0.17 0.525 0.117 1.089 0.643 1.26 0.103 0.033 0.207 0.049 0.309 0.049 0.422 0 0.814-0.269 0.951-0.691 0.999-3.077 2.748-4.728 5.342-5.052 0.289-0.009 6.947-0.238 9.858 4.505C98.906 103.575 99.365 110.425 99.734 115.93zM78.13 124.001c-0.434-4.181-2.04-7.76-4.817-10.657 1.871-0.693 3.421-1.611 4.621-2.749 4.454 3.977 6.647 8.229 6.688 12.958-0.294 0.151-0.588 0.302-0.898 0.449H78.13zM49.765 124.001c-2.537-1.55-5.04-3.559-7.443-5.991-1.146-1.166-2.305-2.453-3.44-3.823-0.19-0.232-0.376-0.466-0.563-0.701 4.643-1.535 8.092-3.871 10.466-7.102 3.921 4.87 8.681 8.474 14.211 8.497 3.091 0.035 5.801-0.29 8.123-0.874 2.904 2.676 4.547 5.96 5.003 9.994H49.765zM39.565 124.001c-0.662-2.263-0.915-4.55-0.749-6.831 0.693 0.782 1.389 1.539 2.082 2.244 1.721 1.743 3.498 3.263 5.303 4.587H39.565zM28.51 108.701c3.296 3.8 4.067 9.661 4.756 14.909l0.052 0.392h-2.542C30.422 118.311 29.676 113.266 28.51 108.701zM8.96 99.322c2.449 0.567 4.936 0.867 7.299 0.867 2.465 0 4.775-0.322 6.773-0.933 0.01 1.159 0.106 2.168 0.279 3.061-4.74 1.795-9.726 1.764-14.519-0.096C8.835 101.255 8.894 100.286 8.96 99.322zM18.041 91.543c0.464-0.723 1.397-1.292 2.496-1.523 0.007-0.001 0.058-0.016 0.095-0.027 0.106-0.018 0.214-0.021 0.319-0.048 0.762-0.1 1.498-0.02 2.133 0.21 0.092 0.255 0.453 1.229 1.068 2.708-0.041 0.052-0.066 0.107-0.112 0.158-0.531 0.587-1.381 1.027-2.335 1.208-1.847 0.352-3.644-0.34-3.917-1.507C17.699 92.337 17.785 91.94 18.041 91.543zM25.27 84.013c0.559 0.176 1.154 0.864 1.619 1.86 0.07 0.188 0.134 0.341 0.171 0.423 0.002 0.006 0.007 0.011 0.01 0.017l0.002 0.004c0 0 0 0 0 0 0.002 0.005 0.001 0.011 0.003 0.016l1.894 4.596c0.159 0.386 0.532 0.619 0.925 0.619 0.127 0 0.256-0.024 0.38-0.075 0.511-0.211 0.754-0.795 0.544-1.306l-1.894-4.596c-0.003-0.007-0.01-0.012-0.013-0.019-0.01-0.027-0.017-0.058-0.029-0.081-0.001-0.003-0.004-0.011-0.006-0.014-0.003-0.007-0.002-0.015-0.005-0.022l-0.124-0.3c-0.324-0.883-1.253-3.803 0.335-4.446 1.283-0.515 2.244 0.955 2.828 2.301 0.033 0.071 0.06 0.138 0.112 0.281 0.038 0.087 0.063 0.163 0.084 0.221l0.051 0.147c0 0.001 0.001 0.002 0.002 0.003 0.006 0.018 0.013 0.039 0.015 0.042l1.74 4.6c0.196 0.517 0.772 0.777 1.289 0.582 0.517-0.195 0.777-0.772 0.581-1.289l-1.724-4.553-0.066-0.194c-0.033-0.095-0.077-0.217-0.106-0.273-0.04-0.12-0.092-0.253-0.133-0.335-0.001-0.003-0.002-0.005-0.003-0.007l-0.362-0.962c-0.176-0.492-0.443-1.708-0.15-2.322 0.079-0.165 0.189-0.262 0.366-0.323 0.437-0.152 0.814-0.146 1.152 0.02 0.693 0.338 1.14 1.272 1.24 1.562 0.094 0.326 0.689 2.349 1.746 5.254 0.001 0.006-0.001 0.012 0 0.018 0.011 0.05 0.038 0.09 0.056 0.136 1.05 2.871 2.545 6.573 4.463 10.384-2.862 3.295-6.442 5.624-10.899 7.094-4.177-7.379-6.397-13.581-6.443-13.707-0.029-0.07-0.052-0.14-0.08-0.211-0.018-0.074-0.046-0.141-0.079-0.207-0.831-2.181-1.105-4.415-0.541-4.743C24.745 83.902 25.07 83.95 25.27 84.013zM38.867 74.334c-0.397-2.477 0.19-5.627 1.069-8.059-0.036 3.598 0.474 7.875 3.001 8.537 1.022 0.269 2.002 0.15 2.835-0.342 0.519-0.307 0.917-0.723 1.232-1.151 0.023 1.147-0.401 2.46-1.118 3.422l-4.933 1.081C39.848 77.221 39.143 76.054 38.867 74.334zM62.578 28.676c0.013 0.006 0.027 0.004 0.04 0.01 0.066 0.028 0.136 0.037 0.207 0.05 0.059 0.011 0.116 0.028 0.175 0.028 0.057 0 0.113-0.017 0.17-0.027 0.073-0.013 0.144-0.023 0.212-0.051 0.013-0.005 0.027-0.004 0.04-0.01 3.25-1.511 6.248-2.092 8.957-1.762-0.211 1.723-0.798 3.682-1.637 3.871-0.411 0.091-0.602 0.002-0.708-0.077-0.365-0.266-0.542-0.982-0.569-1.282-0.044-0.551-0.527-0.961-1.077-0.917-0.55 0.045-0.96 0.527-0.916 1.077 0.015 0.188 0.182 1.854 1.374 2.73 0.34 0.251 0.864 0.507 1.585 0.507 0.23 0 0.48-0.026 0.75-0.087 1.169-0.263 1.917-1.248 2.401-2.388 1.255 3.749 3.29 7.258 7.054 8.531 2.275 8.121 2.037 17.417 0.565 18.132-0.297 0.145-0.712 0.103-1.141-0.113-0.791-0.398-1.417-1.268-1.597-2.216-0.084-0.449-0.463-0.784-0.92-0.813-0.455-0.022-0.875 0.256-1.014 0.691-1.074 3.333-0.146 7.025 2.255 8.979 0.999 0.812 2.155 1.223 3.339 1.223 0.158 0 0.317-0.018 0.476-0.032-0.15 0.295-0.302 0.578-0.457 0.836-1.373 2.288-4.179 5.468-8.081 7.96-0.334-0.941-0.913-1.765-1.676-2.277-0.227-0.151-0.505-0.204-0.771-0.146L54.34 74.889c-5.119-2.544-8.841-6.587-10.482-9.324-0.155-0.258-0.307-0.541-0.457-0.836 0.159 0.015 0.318 0.032 0.476 0.032 1.184 0 2.34-0.411 3.339-1.223 2.401-1.953 3.329-5.646 2.255-8.979-0.14-0.436-0.562-0.715-1.014-0.691-0.457 0.028-0.835 0.363-0.92 0.813-0.179 0.948-0.806 1.817-1.597 2.216-0.429 0.216-0.845 0.257-1.141 0.113-1.472-0.715-1.71-10.011 0.565-18.132 3.764-1.273 5.799-4.782 7.054-8.531 0.484 1.14 1.232 2.126 2.401 2.388 0.271 0.061 0.521 0.087 0.75 0.087 0.72 0 1.245-0.256 1.585-0.507 1.192-0.877 1.359-2.543 1.374-2.73 0.044-0.548-0.363-1.026-0.911-1.073-0.552-0.061-1.032 0.359-1.082 0.907-0.028 0.306-0.205 1.022-0.57 1.288-0.106 0.079-0.296 0.168-0.708 0.077-0.839-0.189-1.426-2.147-1.637-3.871C56.331 26.584 59.328 27.164 62.578 28.676zM84.037 66.276c0.01 3.398-0.468 6.336-1.482 6.603-0.503 0.131-0.93 0.092-1.304-0.127-0.564-0.33-0.943-1.021-1.141-1.509 1.665-1.649 2.934-3.293 3.748-4.648C83.918 66.494 83.977 66.382 84.037 66.276zM80.228 74.471c0.833 0.492 1.814 0.609 2.834 0.343 2.52-0.661 3.034-4.916 3.002-8.508 0.949 2.621 1.579 6.089 0.936 8.687-0.438 1.771-1.369 2.812-2.847 3.182-1.385 0.345-2.577 0.061-3.54-0.854-1.138-1.08-1.644-2.723-1.623-3.992C79.305 73.754 79.711 74.165 80.228 74.471zM88.412 49.545c2.269 1.168 3.234 4.36 2.127 7.371-0.797 2.166-2.507 3.698-4.346 4.058C87.157 57.785 87.922 53.881 88.412 49.545zM86.441 42.141c0.1 2.251 0.111 4.266 0.112 5.985-0.56 5.637-1.616 10.686-2.949 14.282-1.24 0.583-2.492 0.444-3.557-0.421-0.981-0.799-1.813-2.261-1.953-4.048 0.323 0.298 0.682 0.55 1.067 0.744 0.989 0.499 2.051 0.544 2.914 0.126 3.437-1.669 2.475-13.753 0.331-21.013-0.099-0.334-0.364-0.593-0.7-0.683-3.216-0.863-5.366-3.857-6.87-9.611 0.147 0.053 0.298 0.091 0.442 0.15C79.734 29.474 83.489 34.35 86.441 42.141zM74.224 94.02c0.034 0.023 3.424 2.406 2.171 4.466-1.254 2.06-5.495-0.116-5.538-0.14-0.329-0.175-0.728-0.152-1.034 0.058-0.307 0.21-0.473 0.572-0.429 0.942 0.629 5.352-1.285 8.397-6.392 10.128-5.107-1.73-7.021-4.776-6.392-10.128 0.043-0.37-0.122-0.733-0.43-0.943-0.308-0.209-0.706-0.23-1.035-0.056-0.042 0.023-4.277 2.208-5.537 0.139-1.253-2.06 2.137-4.442 2.171-4.466 0.415-0.287 0.551-0.838 0.318-1.285-0.233-0.446-0.762-0.65-1.234-0.476-1.888 0.702-3.548 0.629-5.046-0.2 2.279-1.725 4.494-3.041 6.513-4.029 0.752 2.268 3.173 6.646 10.668 6.646 7.497 0 9.921-4.378 10.673-6.644 2.007 0.984 4.229 2.3 6.514 4.029-1.497 0.828-3.158 0.901-5.047 0.199-0.473-0.174-1.001 0.029-1.234 0.476C73.673 93.182 73.81 93.733 74.224 94.02zM47.509 104.717c-2.232 3.29-5.675 5.617-10.488 7.085-0.6-0.804-1.179-1.615-1.736-2.429 4.415-1.698 7.946-4.094 10.518-7.153C46.35 103.073 46.918 103.906 47.509 104.717zM34.145 107.666c-0.615-0.949-1.2-1.894-1.756-2.828 4.36-1.501 7.938-3.789 10.862-6.959 0.457 0.849 0.938 1.695 1.436 2.534C42.231 103.554 38.692 105.989 34.145 107.666zM40.038 85.977l15.961-3.525 0 1.889c-1.046 0.356-2.217 0.81-3.475 1.381-0.001 0-0.001 0-0.002 0.001-2.973 1.349-6.44 3.365-9.945 6.362C41.625 90.009 40.776 87.945 40.038 85.977zM63 92.676c-6.619 0-8.397-3.849-8.853-5.476 0.799-0.34 1.568-0.643 2.268-0.887 0.849 1.699 2.88 3.863 6.585 3.863 3.704 0 5.734-2.163 6.581-3.863 0.698 0.243 1.465 0.54 2.277 0.887C71.402 88.824 69.625 92.676 63 92.676zM67.998 84.911c-0.188 0.549-1.303 3.265-4.998 3.265-3.698 0-4.811-2.704-5.002-3.265l0.001-2.9 10.001-2.209L67.998 84.911zM69.471 77.428c0.047-0.195 0.1-0.387 0.121-0.596 0.102-1.019-0.128-2.157-0.579-3.111l2.556-0.56c0.56 0.58 0.897 1.594 0.793 2.492-0.054 0.466-0.242 1.065-0.829 1.319L69.471 77.428zM41.963 66.276c0.06 0.106 0.119 0.217 0.179 0.318 0.808 1.347 2.098 2.986 3.756 4.631-0.193 0.482-0.574 1.187-1.144 1.522-0.373 0.222-0.801 0.264-1.31 0.13C42.431 72.612 41.953 69.674 41.963 66.276zM51.383 75.537l-2.912 0.638c0.289-0.736 0.465-1.514 0.519-2.276C49.746 74.47 50.538 75.021 51.383 75.537zM44.294 37.114c-0.336 0.09-0.601 0.349-0.7 0.683-2.145 7.26-3.106 19.344 0.331 21.013 0.861 0.418 1.924 0.373 2.913-0.126 0.386-0.194 0.745-0.446 1.067-0.744-0.139 1.787-0.971 3.249-1.953 4.048-1.065 0.865-2.317 1.003-3.557 0.421-1.332-3.596-2.389-8.645-2.949-14.282 0-1.719 0.011-3.734 0.112-5.985 2.952-7.791 6.707-12.667 11.163-14.488 0.144-0.059 0.296-0.097 0.442-0.149C49.66 33.257 47.51 36.251 44.294 37.114zM37.588 49.545c0.49 4.336 1.255 8.239 2.219 11.427-1.836-0.363-3.549-1.891-4.346-4.057C34.354 53.904 35.319 50.712 37.588 49.545zM61.357 75.399c0.237 0.567 0.857 0.974 1.592 0.974 0.939 0 1.699-0.66 1.699-1.473 0-0.074-0.013-0.145-0.025-0.216l2.354-0.516c0.401 0.615 0.713 1.582 0.624 2.467-0.062 0.621-0.31 1.078-0.728 1.368L39.349 84.08c-0.444-1.266-0.838-2.474-1.177-3.601L61.357 75.399zM25.051 97.985l0.489-1.942c1.131 2.473 2.641 5.521 4.513 8.76 0.016 0.026 0.028 0.054 0.046 0.078 0.17 0.294 0.342 0.589 0.519 0.887-1.763 0.117-3.062-0.193-3.927-0.953C25.436 103.715 24.916 101.54 25.051 97.985zM35.249 123.349c-0.706-5.38-1.503-11.361-4.911-15.572 0.453-0.015 0.93-0.058 1.429-0.124 0.374 0.597 0.762 1.197 1.159 1.797 0.012 0.018 0.022 0.037 0.036 0.054 0.897 1.352 1.85 2.705 2.863 4.034 0.001 0.002 0.003 0.004 0.004 0.006 0.399 0.524 0.808 1.044 1.225 1.559-0.492 2.965-0.355 5.95 0.426 8.897h-2.144L35.249 123.349zM79.239 109.079c0.617-0.895 0.9-1.644 1.036-2.009l0.062-0.161c0.776-2.083 2.958-3.725 5.56-4.183 2.187-0.387 4.186 0.194 5.341 1.552 1.462 1.721 1.698 5.992 1.948 10.516l0.079 1.385c-0.456 0.776-2.334 3.605-6.685 6.281C86.241 117.563 83.826 113.164 79.239 109.079zM93.483 119.269c0.131 1.583 0.315 3.174 0.579 4.731h-6.175C90.554 122.324 92.347 120.606 93.483 119.269zM95.185 31.638c0.529 4.378-0.348 6.461-1.196 8.476-0.633 1.503-1.23 2.922-1.112 4.999 0.127 2.218 1.054 3.778 1.951 5.287C95.896 52.196 97 54.055 97 57.356c0 2.942-0.881 4.714-1.813 6.59-1.012 2.035-2.059 4.141-2.014 7.657 0.046 3.611 0.957 5.427 1.837 7.184 0.755 1.507 1.469 2.93 1.63 5.629 0.191 3.209-0.534 4.722-1.235 6.185-0.571 1.19-1.161 2.422-1.192 4.335-0.003 0.153 0.018 0.302 0.022 0.453-2.454-1.212-5.006-1.476-6.347-1.52-0.18-0.921-0.647-2.246-1.864-2.938-1.68-0.951-3.181-0.605-4.121-0.07-4.51-3.518-8.828-5.466-11.904-6.513l0.001-4.988 2.046-0.452c0.046-0.011 0.093-0.024 0.137-0.041 1.211-0.457 2-1.545 2.167-2.984 0.007-0.064 0.004-0.129 0.009-0.193 0.939-0.559 1.828-1.153 2.655-1.776 0.135 1.786 0.956 3.654 2.224 4.858 1.071 1.016 2.397 1.541 3.837 1.541 0.51 0 1.034-0.065 1.565-0.199 2.2-0.551 3.688-2.156 4.302-4.641 0.986-3.987-0.47-9.541-2.234-12.548 2.47-0.526 4.67-2.496 5.708-5.319 1.534-4.17-0.082-8.703-3.602-10.104-0.083-0.033-0.175-0.059-0.263-0.089-0.003-1.407-0.022-2.988-0.088-4.725 1.039-0.36 1.915-0.984 2.634-1.79 0.038-0.045 0.081-0.085 0.11-0.135 1.862-2.189 2.619-5.63 2.329-8.847-0.301-3.34-1.619-5.43-3.439-5.453-0.036 0-0.071-0.001-0.107-0.001-0.474 0-0.917 0.042-1.331 0.121-0.541-1.507-0.099-3.165 1.239-4.767C91.289 22.895 94.497 25.952 95.185 31.638zM91.545 32.096c0.17 1.893-0.092 4.427-1.112 6.316-0.674-1.322-1.383-3.21-1.06-4.681 0.296-1.348 1.347-1.886 2.113-2.101C91.506 31.783 91.53 31.931 91.545 32.096zM84.715 16.908c-0.367 0.149-0.721 0.321-1.049 0.541-0.549-1.865-1.76-3.22-3.93-4.514-0.094-0.057-0.197-0.097-0.305-0.12-1.175-0.25-2.258-0.316-3.244-0.199 0.294-0.866 0.385-1.758 0.321-2.589C81.001 11.028 83.703 13.288 84.715 16.908zM52.383 8.216c-0.11 1.193 0.138 2.25 0.74 3.068 0.809 1.102 2.203 1.701 3.911 1.625 0.54-0.017 0.969-0.459 0.969-0.999 0-3.231 0.83-3.808 2.086-4.681 0.977-0.678 2.129-1.479 3.027-3.405 1.026 1.885 2.128 2.682 2.995 3.309 1.178 0.852 1.889 1.366 1.887 4.776 0 0.541 0.429 0.983 0.969 1 1.699 0.063 3.102-0.523 3.911-1.625 0.602-0.818 0.85-1.875 0.74-3.068 0.429 0.337 0.659 0.809 0.783 1.231 0.37 1.265 0.036 3.098-1.242 4.299-0.209 0.148-0.412 0.311-0.606 0.486-0.39 0.354-0.439 0.948-0.113 1.361 0.327 0.414 0.917 0.503 1.35 0.205 0.221-0.151 0.427-0.313 0.62-0.484 1.132-0.754 2.593-0.941 4.446-0.576 2.186 1.334 2.984 2.557 3.148 4.776 0.03 0.415 0.314 0.767 0.712 0.886 0.398 0.116 0.829-0.022 1.08-0.353 1.591-2.089 4.165-1.808 6.174-1.119-3.515 2.963-4.024 6.087-3.164 8.414-0.404 0.283-0.749 0.625-1.015 1.034-0.465-0.723-0.963-1.39-1.488-2.011-0.078-1.891 0.471-3.277 1.691-4.215 0.438-0.337 0.52-0.965 0.183-1.402-0.337-0.439-0.965-0.52-1.402-0.184-1.268 0.976-2.042 2.29-2.339 3.907-1.143-0.983-2.396-1.777-3.759-2.378 0.74-1.955 0.96-3.626 0.667-5.082-0.109-0.541-0.64-0.894-1.178-0.783-0.542 0.109-0.892 0.636-0.783 1.178 0.217 1.08 0.004 2.405-0.599 3.994-1.624-0.478-3.379-0.723-5.267-0.725 0.236-0.614 0.35-1.292 0.32-1.982-0.062-1.421-0.708-2.62-1.772-3.289-0.468-0.293-1.085-0.152-1.379 0.314-0.294 0.468-0.153 1.085 0.314 1.379 0.5 0.314 0.805 0.928 0.838 1.683 0.038 0.879-0.319 1.736-0.91 2.185-0.355 0.269-0.489 0.74-0.33 1.155s0.57 0.684 1.019 0.638c7.256-0.607 12.345 2.198 15.574 8.604 0.208 0.411 0.668 0.63 1.115 0.524 0.448-0.102 0.769-0.496 0.778-0.955 0.012-0.619 0.051-2.484 2.989-2.467 0.265 0.003 0.633 0.434 0.942 1.219-1.411 0.387-3.109 1.409-3.594 3.62-0.56 2.548 0.878 5.467 1.653 6.799-0.313 0.251-0.662 0.454-1.046 0.61-3.12-7.909-7.15-12.929-11.993-14.909-0.722-0.295-1.471-0.502-2.231-0.665-0.015-0.006-0.033-0.007-0.049-0.012-0.061-0.02-0.12-0.038-0.185-0.046-0.025-0.003-0.045-0.016-0.07-0.017-0.01 0-0.019 0.005-0.029 0.005-3.189-0.6-6.696-0.062-10.471 1.619-3.775-1.681-7.283-2.22-10.47-1.619-0.01 0-0.019-0.005-0.03-0.005-0.025 0.001-0.045 0.014-0.069 0.017-0.067 0.008-0.127 0.027-0.19 0.047-0.01 0.003-0.022 0.004-0.032 0.008-0.765 0.164-1.518 0.371-2.245 0.668-4.843 1.979-8.873 6.999-11.993 14.909-0.383-0.156-0.733-0.359-1.046-0.61 0.775-1.332 2.213-4.25 1.653-6.798-0.485-2.212-2.183-3.234-3.594-3.621 0.309-0.785 0.677-1.215 0.942-1.219 2.914-0.024 2.977 1.848 2.989 2.467 0.009 0.459 0.33 0.854 0.778 0.955 0.448 0.106 0.909-0.113 1.115-0.524 3.229-6.406 8.324-9.212 15.574-8.604 0.448 0.045 0.859-0.223 1.019-0.638s0.025-0.887-0.33-1.155c-0.591-0.448-0.948-1.306-0.91-2.185 0.033-0.755 0.339-1.368 0.838-1.683 0.468-0.294 0.608-0.911 0.314-1.379-0.293-0.468-0.91-0.606-1.379-0.314-1.064 0.669-1.71 1.868-1.772 3.289-0.03 0.69 0.084 1.368 0.32 1.982-1.888 0.002-3.643 0.246-5.267 0.725-0.603-1.59-0.816-2.914-0.599-3.995 0.109-0.542-0.242-1.068-0.783-1.178-0.543-0.113-1.069 0.242-1.178 0.783-0.292 1.456-0.073 3.127 0.667 5.082-1.362 0.602-2.615 1.395-3.759 2.378-0.297-1.618-1.071-2.932-2.339-3.908-0.437-0.335-1.066-0.256-1.402 0.184-0.337 0.438-0.255 1.065 0.183 1.402 1.22 0.938 1.769 2.324 1.691 4.215-0.525 0.622-1.023 1.288-1.488 2.011-0.265-0.407-0.611-0.748-1.016-1.031 0.861-2.327 0.353-5.452-3.164-8.416 2.009-0.688 4.583-0.969 6.174 1.119 0.251 0.33 0.682 0.467 1.08 0.353 0.398-0.119 0.682-0.471 0.712-0.886 0.164-2.22 0.963-3.442 3.148-4.776 1.852-0.366 3.314-0.178 4.446 0.576 0.192 0.171 0.399 0.333 0.62 0.484 0.434 0.297 1.023 0.21 1.35-0.205 0.326-0.413 0.277-1.008-0.113-1.361-0.194-0.176-0.396-0.338-0.606-0.486-1.277-1.201-1.611-3.034-1.241-4.299C51.724 9.024 51.954 8.553 52.383 8.216zM34.455 32.096c0.015-0.165 0.039-0.312 0.059-0.467 0.766 0.215 1.817 0.754 2.113 2.103 0.323 1.47-0.386 3.358-1.06 4.68C34.547 36.522 34.285 33.989 34.455 32.096zM33.182 21.783c-1.179-0.632-2.254-1.588-3.064-2.787-2.191-3.246-1.975-7.237 0.482-8.896 2.458-1.661 6.241-0.371 8.433 2.875 0.377 0.558 0.672 1.152 0.913 1.761-0.242 0.545-0.448 1.118-0.612 1.722-1.694-0.13-3.638 0.299-5.734 1.318-0.321 0.156-0.534 0.472-0.56 0.827-0.025 0.355 0.14 0.698 0.435 0.899 0.43 0.293 0.826 0.592 1.191 0.896C34.243 20.74 33.73 21.197 33.182 21.783zM49.492 10.026c-0.063 0.831 0.027 1.723 0.321 2.589-0.987-0.116-2.07-0.05-3.244 0.199-0.107 0.023-0.21 0.063-0.305 0.12-2.17 1.294-3.381 2.648-3.93 4.514-0.328-0.22-0.682-0.392-1.049-0.541C42.297 13.288 44.999 11.028 49.492 10.026zM23.339 12.203c0.291 0.134 0.499 0.32 0.708 0.562 0.329 0.38 0.889 0.455 1.308 0.178s0.566-0.822 0.345-1.273c-1.274-2.594-1.719-5.352-1.343-8.224l2.412 3.335c0.195 0.271 0.501 0.414 0.811 0.414 0.203 0 0.408-0.062 0.585-0.189 0.448-0.324 0.548-0.949 0.224-1.396l-2.542-3.513c3.515 0.352 6.483 1.791 9.019 4.385 0.011 0.011 0.021 0.021 0.032 0.032 0.386 0.394 1.018 0.398 1.412 0.014 0.394-0.386 0.402-1.018 0.018-1.412-0.009-0.01-0.019-0.02-0.028-0.028-0.061-0.063-0.118-0.127-0.17-0.191 3.107 2.176 4.663 4.598 4.855 7.463-0.1-0.166-0.185-0.34-0.294-0.502-2.809-4.16-7.838-5.688-11.209-3.414-3.372 2.277-3.83 7.514-1.021 11.674 0.389 0.576 0.832 1.106 1.311 1.591-1.113-0.199-2.072-0.615-2.884-1.273C25.049 18.944 23.883 16.245 23.339 12.203zM32.827 71.603c0.044-3.517-1.002-5.622-2.014-7.657C29.881 62.07 29 60.299 29 57.356c0-3.302 1.104-5.16 2.172-6.957 0.896-1.509 1.824-3.069 1.951-5.287 0.119-2.077-0.479-3.496-1.112-4.999-0.848-2.015-1.726-4.098-1.196-8.476 0.452-3.733 1.968-6.315 3.358-7.962 0.004-0.004 0.007-0.008 0.011-0.013 0.737-0.871 1.43-1.479 1.914-1.85 1.339 1.603 1.783 3.262 1.242 4.769-0.446-0.086-0.926-0.128-1.438-0.119-1.82 0.023-3.138 2.113-3.439 5.453-0.29 3.217 0.467 6.657 2.329 8.847 0.029 0.05 0.072 0.09 0.11 0.135 0.719 0.806 1.595 1.429 2.634 1.79-0.066 1.736-0.085 3.318-0.088 4.725-0.088 0.03-0.18 0.056-0.263 0.089-3.52 1.4-5.135 5.934-3.602 10.104 1.037 2.819 3.232 4.788 5.698 5.317-1.697 2.87-2.995 7.957-2.39 11.729 0.245 1.528 0.79 2.775 1.597 3.711l-1.054 0.231c-0.357-0.607-0.926-1.335-1.785-1.759-0.821-0.404-1.753-0.446-2.701-0.117-0.684 0.239-1.208 0.708-1.516 1.355-0.136 0.287-0.21 0.596-0.258 0.906-0.455-0.248-0.933-0.384-1.429-0.398 0.119-0.425 0.444-0.916 0.986-1.668C31.651 75.637 32.796 74.048 32.827 71.603zM19.782 72.718c0.042-0.35 0.263-1.164 1.4-1.164 1.22 0 1.56 0.701 1.637 0.924l1.378 9.596c-0.307 0.078-0.633 0.202-0.978 0.402-0.207 0.12-0.374 0.271-0.524 0.434l-1.783-3.403c-0.316-0.603-0.778-1.073-1.309-1.424L19.782 72.718zM15.624 80.753c0.152-0.486 0.485-0.885 0.937-1.122 0.282-0.147 0.584-0.218 0.883-0.218 0.688 0 1.354 0.372 1.695 1.022l2.535 4.836c0.237 0.452 0.284 0.97 0.132 1.457-0.152 0.486-0.485 0.885-0.937 1.122-0.105 0.055-0.214 0.097-0.324 0.131-0.002 0-0.004 0-0.006 0.001v0.001c-0.012 0.002-0.025 0.004-0.037 0.006-0.113 0.012-0.234 0.034-0.373 0.072-0.238 0.018-0.48-0.006-0.716-0.079-0.486-0.152-0.884-0.484-1.121-0.934l-0.687-1.311-1.848-3.528C15.519 81.758 15.472 81.24 15.624 80.753zM11.474 82.297c0.271-0.142 0.561-0.209 0.847-0.209 0.661 0 1.3 0.357 1.627 0.981l1.303 2.486 1.267 2.418c0 0.001 0.001 0.001 0.002 0.002l0.035 0.066c0.469 0.896 0.123 2.006-0.772 2.475-0.434 0.228-0.929 0.272-1.397 0.126-0.467-0.146-0.85-0.465-1.077-0.898l-2.606-4.973C10.233 83.876 10.579 82.766 11.474 82.297zM8.261 90.946c-0.008 0.002-0.015 0.003-0.023 0.005l-2.334 0.516c0.11-0.416 0.181-0.858 0.181-1.329 0-0.952-0.253-1.804-0.663-2.482l4.067-0.891 1.837 3.506L8.261 90.946zM3.042 88.153c0.425 0 1.042 0.773 1.042 1.984 0 1.001-0.421 1.695-0.807 1.909l-0.291 0.064C2.565 92.05 2 91.299 2 90.138 2 88.927 2.617 88.153 3.042 88.153zM12.717 92.011c0.65 0.46 1.426 0.715 2.221 0.715 0.278 0 0.557-0.034 0.834-0.096 0.011 0.18 0.024 0.36 0.065 0.539 0.447 1.911 2.471 3.155 4.877 3.155 0.443 0 0.9-0.043 1.363-0.131 0.526-0.1 1.016-0.271 1.482-0.474l-0.349 1.387c-3.667 1.349-9.056 1.412-14.102 0.196 0.091-1.146 0.187-2.275 0.281-3.368l0.103-1.212L12.717 92.011zM11.016 117.33c-1.958-2.794-2.403-7.698-2.293-12.984 2.466 0.876 4.976 1.32 7.479 1.32 2.587 0 5.165-0.496 7.683-1.433 0.37 0.842 0.857 1.534 1.484 2.084 0.155 0.136 0.335 0.24 0.505 0.358 1.531 5.053 2.48 10.736 2.897 17.314C20.239 123.86 13.948 121.514 11.016 117.33z" fill="#61777f" data-fill-palette-color="accent"></path><circle cx="73" cy="48.08" r="2.0" fill="#61777f" data-fill-palette-color="accent"></circle><circle cx="53" cy="48.08" r="2.0" fill="#61777f" data-fill-palette-color="accent"></circle><circle cx="63" cy="37.58" r="1.5" fill="#61777f" data-fill-palette-color="accent"></circle><ellipse cx="63" cy="23.144" rx="1.394" ry="2.362" fill="#61777f" data-fill-palette-color="accent"></ellipse></g></svg></g></svg></g><g></g></svg></g></svg></g></svg></g></svg></g><defs></defs></svg><rect width="320" height="360" fill="none" stroke="none" visibility="hidden"></rect></g></svg></g></svg>